#!OML:ASF F:\VICON\USERDATA\INSTALL\rory3\rory3.ASF
:FULLY-SPECIFIED
:DEGREES
1501
root -0.219198 15.5519 -1.17978 -4.11752 3.50764 -0.685126
lowerback 15.4661 1.90264 -2.59416
upperback 2.356 1.8785 -3.0844
thorax -6.1389 0.945805 -2.18989
lowerneck -7.06681 -6.87089 -14.4674
upperneck 6.05484 -8.90359 13.7718
head 4.24589 -4.18261 6.05009
rclavicle 4.37326e-015 -3.97569e-014
rhumerus 27.88 13.1645 -0.609416
rradius 79.7478
rwrist -66.5877
rhand -21.0755 5.83922
rfingers 7.12502
rthumb 5.30145 -24.0745
lclavicle 4.37326e-015 -3.97569e-014
lhumerus 15.3401 -2.10768 2.9214
lradius 130.403
lwrist 92.6029
lhand -5.35502 16.2561
lfingers 7.12502
lthumb 20.4523 45.1989
rfemur -12.4609 3.00332 18.5752
rtibia 38.5531
rfoot -17.3944 -8.96242
rtoes -11.7754
lfemur -11.8878 -5.08933 -13.4824
ltibia 33.2475
lfoot -12.7304 -2.10041
ltoes -15.5089
1502
root -0.219727 15.5538 -1.17629 -4.14227 3.36474 -0.806905
lowerback 15.511 1.91584 -2.57219
upperback 2.3924 1.88837 -3.23797
thorax -6.11859 0.948648 -2.3686
lowerneck -7.68466 -6.95766 -14.1878
upperneck 6.50101 -8.99544 13.5992
head 4.4757 -4.20366 5.92173
rclavicle -1.98785e-015 -6.36111e-015
rhumerus 28.7001 13.033 -0.520964
rradius 81.3454
rwrist -66.4757
rhand -21.6849 6.32918
rfingers 7.12502
rthumb 4.71307 -23.5984
lclavicle -1.98785e-015 -6.36111e-015
lhumerus 14.9027 -1.9696 2.67412
lradius 129.416
lwrist 92.0944
lhand -5.08529 16.2287
lfingers 7.12502
lthumb 20.7115 45.1435
rfemur -12.4235 3.1498 18.7313
rtibia 38.4905
rfoot -17.3443 -8.99294
rtoes -11.6242
lfemur -11.8006 -5.12452 -13.3444
ltibia 33.2119
lfoot -12.7681 -1.93251
ltoes -15.5953
1503
root -0.220529 15.5551 -1.1739 -4.13847 3.22681 -0.849144
lowerback 15.585 1.94565 -2.66047
upperback 2.35911 1.90047 -3.34288
thorax -6.1938 0.955181 -2.4374
lowerneck -7.99265 -6.99325 -14.1812
upperneck 6.74976 -9.02572 13.5803
head 4.60564 -4.20685 5.90273
rclavicle -1.74931e-014 -7.95139e-015
rhumerus 29.5319 12.8334 -0.339909
rradius 82.8729
rwrist -66.8284
rhand -21.4286 6.89438
rfingers 7.12502
rthumb 4.9605 -23.0276
lclavicle -1.74931e-014 -7.95139e-015
lhumerus 14.4189 -1.88512 2.6793
lradius 128.233
lwrist 91.4114
lhand -4.60811 16.1994
lfingers 7.12502
lthumb 21.1699 45.0636
rfemur -12.421 3.24575 18.7958
rtibia 38.4334
rfoot -17.2987 -9.02414
rtoes -12.0072
lfemur -11.7324 -5.1104 -13.2881
ltibia 33.1637
lfoot -12.8147 -1.86828
ltoes -15.5158
1504
root -0.218759 15.556 -1.17204 -4.11323 3.11596 -0.805521
lowerback 15.6589 1.98472 -2.76951
upperback 2.27516 1.9179 -3.46089
thorax -6.32326 0.964632 -2.51156
lowerneck -7.95799 -7.00467 -14.3423
upperneck 6.77078 -9.04276 13.7103
head 4.62267 -4.2149 5.97051
rclavicle 7.95139e-015 2.8625e-014
rhumerus 30.3393 12.7611 -0.102678
rradius 84.4932
rwrist -67.115
rhand -20.7636 6.96325
rfingers 7.12502
rthumb 5.60262 -22.9427
lclavicle 7.95139e-015 2.8625e-014
lhumerus 13.9152 -1.89411 2.74588
lradius 126.979
lwrist 90.6911
lhand -4.33982 16.1789
lfingers 7.12502
lthumb 21.4276 45.0139
rfemur -12.4344 3.21444 18.7392
rtibia 38.3931
rfoot -17.2675 -9.00817
rtoes -12.5867
lfemur -11.6772 -5.13315 -13.3441
ltibia 33.1036
lfoot -12.8283 -1.75744
ltoes -15.6575
1505
root -0.216898 15.5552 -1.16926 -4.06939 3.02746 -0.646337
lowerback 15.695 2.06813 -2.92427
upperback 2.19352 1.97958 -3.69916
thorax -6.42611 0.995649 -2.69648
lowerneck -7.88766 -7.0511 -14.187
upperneck 6.81022 -9.13782 13.7109
head 4.62929 -4.26008 5.93787
rclavicle 1.07344e-014 6.36111e-015
rhumerus 30.9262 12.7349 -0.0585339
rradius 86.093
rwrist -67.4926
rhand -20.4045 6.9133
rfingers 7.12502
rthumb 5.9493 -22.9832
lclavicle 1.07344e-014 6.36111e-015
lhumerus 13.6317 -1.95104 2.66333
lradius 125.757
lwrist 89.9562
lhand -4.03124 16.0268
lfingers 7.12502
lthumb 21.724 44.8278
rfemur -12.471 3.19155 18.5446
rtibia 38.3735
rfoot -17.2668 -8.89326
rtoes -12.298
lfemur -11.6327 -5.15145 -13.5295
ltibia 33.0306
lfoot -12.8146 -1.63554
ltoes -15.9457
1506
root -0.215348 15.558 -1.16364 -4.05284 2.88516 -0.602534
lowerback 15.6882 2.08384 -3.07173
upperback 2.17661 1.96551 -3.82934
thorax -6.44133 0.99071 -2.74994
lowerneck -7.99106 -6.99672 -14.143
upperneck 6.90926 -9.06527 13.716
head 4.6644 -4.21891 5.93662
rclavicle 1.55052e-014 2.38542e-014
rhumerus 31.8128 12.5417 0.0557686
rradius 87.575
rwrist -67.7854
rhand -20.2781 7.43856
rfingers 7.12502
rthumb 6.07137 -22.4544
lclavicle 1.55052e-014 2.38542e-014
lhumerus 12.9714 -1.94682 2.46257
lradius 124.391
lwrist 89.055
lhand -3.4293 15.7774
lfingers 7.12502
lthumb 22.3019 44.5104
rfemur -12.4464 3.2843 18.4857
rtibia 38.3301
rfoot -17.4061 -8.65693
rtoes -11.4708
lfemur -11.5594 -5.10852 -13.5851
ltibia 32.9894
lfoot -12.8328 -1.51137
ltoes -16.0912
1507
root -0.213887 15.5639 -1.15922 -4.02271 2.69463 -0.713215
lowerback 15.6532 2.08406 -3.05917
upperback 2.05873 1.96089 -3.87101
thorax -6.54672 0.987493 -2.80353
lowerneck -7.32151 -6.75638 -14.4795
upperneck 6.62863 -8.79562 14.0641
head 4.46026 -4.10689 6.14981
rclavicle -3.45885e-014 3.18055e-015
rhumerus 32.7812 12.5254 0.473466
rradius 89.1076
rwrist -67.9055
rhand -20.0358 7.98868
rfingers 7.12502
rthumb 6.30526 -21.8975
lclavicle -3.45885e-014 3.18055e-015
lhumerus 12.1778 -2.17132 2.23288
lradius 123.005
lwrist 88.3209
lhand -3.10382 15.6173
lfingers 7.12502
lthumb 22.6143 44.3126
rfemur -12.4279 3.38054 18.6007
rtibia 38.2521
rfoot -17.4399 -8.42885
rtoes -10.8203
lfemur -11.5271 -5.07945 -13.4639
ltibia 32.9912
lfoot -12.9267 -1.35035
ltoes -16.1637
1508
root -0.212265 15.5637 -1.15806 -3.96012 2.53844 -0.866199
lowerback 15.6348 2.19289 -2.87058
upperback 1.8593 2.11723 -4.02352
thorax -6.73417 1.05666 -3.11377
lowerneck -6.34475 -6.61401 -14.5067
upperneck 6.24052 -8.71749 14.3437
head 4.18216 -4.09728 6.27945
rclavicle 2.60408e-014 1.43125e-014
rhumerus 33.1622 12.6211 0.644581
rradius 90.8343
rwrist -68.4284
rhand -20.0873 7.87775
rfingers 7.12502
rthumb 6.25555 -22.0099
lclavicle 2.60408e-014 1.43125e-014
lhumerus 12.0709 -2.44103 2.22492
lradius 121.918
lwrist 87.9079
lhand -3.36458 15.6723
lfingers 7.12502
lthumb 22.364 44.3979
rfemur -12.4531 3.39263 18.7869
rtibia 38.1366
rfoot -17.31 -8.55661
rtoes -11.7256
lfemur -11.5809 -5.08942 -13.2933
ltibia 33.0389
lfoot -13.0556 -1.1698
ltoes -16.5017
1509
root -0.210806 15.5617 -1.15667 -3.90702 2.41088 -1.01589
lowerback 15.5229 2.25618 -2.77837
upperback 1.92345 2.22119 -4.09286
thorax -6.59424 1.10483 -3.25374
lowerneck -6.85947 -6.75238 -14.4837
upperneck 6.60687 -8.86956 14.271
head 4.39694 -4.15282 6.2236
rclavicle -5.56597e-015 6.36111e-015
rhumerus 33.702 12.1554 0.605905
rradius 92.5801
rwrist -69.1439
rhand -20.3509 7.41488
rfingers 7.12502
rthumb 6.00107 -22.4801
lclavicle -5.56597e-015 6.36111e-015
lhumerus 11.8897 -2.26971 2.57559
lradius 120.748
lwrist 87.4525
lhand -3.81349 15.1178
lfingers 7.12502
lthumb 21.9331 43.8945
rfemur -12.4581 3.41121 18.9657
rtibia 38.0108
rfoot -17.1676 -8.68867
rtoes -12.607
lfemur -11.6382 -5.08904 -13.1232
ltibia 33.0976
lfoot -13.1816 -1.01056
ltoes -16.8696
